<mxfile host="Electron" modified="2024-06-04T15:32:30.680Z" agent="Mozilla/5.0 (Windows NT 10.0; Win64; x64) AppleWebKit/537.36 (KHTML, like Gecko) draw.io/24.2.5 Chrome/120.0.6099.109 Electron/28.1.0 Safari/537.36" etag="D_shrchTwk28lL8zhjQa" version="24.2.5" type="device" pages="2">
  <diagram name="Страница — 1" id="E_W8kbmxQknz8MrnFDRr">
    <mxGraphModel dx="1272" dy="876" grid="1" gridSize="10" guides="1" tooltips="1" connect="1" arrows="1" fold="1" page="1" pageScale="1" pageWidth="3000" pageHeight="3000" math="0" shadow="0">
      <root>
        <mxCell id="0" />
        <mxCell id="1" parent="0" />
        <mxCell id="Vu6h0XRG9ciN_BlJq5Kv-31" style="edgeStyle=none;rounded=0;orthogonalLoop=1;jettySize=auto;html=1;exitX=1;exitY=0.75;exitDx=0;exitDy=0;entryX=1;entryY=0;entryDx=0;entryDy=0;fontSize=15;" parent="1" source="Vu6h0XRG9ciN_BlJq5Kv-10" target="Vu6h0XRG9ciN_BlJq5Kv-12" edge="1">
          <mxGeometry relative="1" as="geometry" />
        </mxCell>
        <mxCell id="Vu6h0XRG9ciN_BlJq5Kv-32" value="NeedNewTargetSignal" style="edgeLabel;html=1;align=center;verticalAlign=middle;resizable=0;points=[];fontSize=15;" parent="Vu6h0XRG9ciN_BlJq5Kv-31" vertex="1" connectable="0">
          <mxGeometry x="-0.0451" y="-1" relative="1" as="geometry">
            <mxPoint as="offset" />
          </mxGeometry>
        </mxCell>
        <mxCell id="Vu6h0XRG9ciN_BlJq5Kv-10" value="ButtonPushedSlot&lt;div style=&quot;font-size: 15px;&quot;&gt;(BUSHED_BTN)&lt;/div&gt;" style="whiteSpace=wrap;html=1;fillColor=#ffe6cc;strokeColor=#d79b00;fontSize=15;" parent="1" vertex="1">
          <mxGeometry x="1350" y="590" width="120" height="60" as="geometry" />
        </mxCell>
        <mxCell id="Vu6h0XRG9ciN_BlJq5Kv-33" style="edgeStyle=none;rounded=0;orthogonalLoop=1;jettySize=auto;html=1;exitX=1;exitY=0.5;exitDx=0;exitDy=0;entryX=0;entryY=0;entryDx=0;entryDy=0;fontSize=15;" parent="1" source="Vu6h0XRG9ciN_BlJq5Kv-11" target="Vu6h0XRG9ciN_BlJq5Kv-15" edge="1">
          <mxGeometry relative="1" as="geometry" />
        </mxCell>
        <mxCell id="Vu6h0XRG9ciN_BlJq5Kv-34" value="StopOnFloorSignal" style="edgeLabel;html=1;align=center;verticalAlign=middle;resizable=0;points=[];fontSize=15;" parent="Vu6h0XRG9ciN_BlJq5Kv-33" vertex="1" connectable="0">
          <mxGeometry x="0.1487" y="-4" relative="1" as="geometry">
            <mxPoint as="offset" />
          </mxGeometry>
        </mxCell>
        <mxCell id="Vu6h0XRG9ciN_BlJq5Kv-37" style="edgeStyle=none;rounded=0;orthogonalLoop=1;jettySize=auto;html=1;exitX=1;exitY=1;exitDx=0;exitDy=0;entryX=0.25;entryY=0;entryDx=0;entryDy=0;fontSize=15;" parent="1" source="Vu6h0XRG9ciN_BlJq5Kv-11" target="Vu6h0XRG9ciN_BlJq5Kv-14" edge="1">
          <mxGeometry relative="1" as="geometry" />
        </mxCell>
        <mxCell id="Vu6h0XRG9ciN_BlJq5Kv-38" value="MoveControllerSignal" style="edgeLabel;html=1;align=center;verticalAlign=middle;resizable=0;points=[];fontSize=15;" parent="Vu6h0XRG9ciN_BlJq5Kv-37" vertex="1" connectable="0">
          <mxGeometry x="-0.18" y="-3" relative="1" as="geometry">
            <mxPoint as="offset" />
          </mxGeometry>
        </mxCell>
        <mxCell id="Vu6h0XRG9ciN_BlJq5Kv-11" value="GotTargetSlot&lt;div style=&quot;font-size: 15px;&quot;&gt;(BUSY)&lt;/div&gt;" style="whiteSpace=wrap;html=1;fillColor=#ffe6cc;strokeColor=#d79b00;fontSize=15;" parent="1" vertex="1">
          <mxGeometry x="1060" y="890" width="120" height="60" as="geometry" />
        </mxCell>
        <mxCell id="Vu6h0XRG9ciN_BlJq5Kv-39" style="edgeStyle=none;rounded=0;orthogonalLoop=1;jettySize=auto;html=1;exitX=-0.008;exitY=0.9;exitDx=0;exitDy=0;entryX=0.5;entryY=0;entryDx=0;entryDy=0;exitPerimeter=0;fontSize=15;" parent="1" source="Vu6h0XRG9ciN_BlJq5Kv-12" target="Vu6h0XRG9ciN_BlJq5Kv-11" edge="1">
          <mxGeometry relative="1" as="geometry" />
        </mxCell>
        <mxCell id="Vu6h0XRG9ciN_BlJq5Kv-40" value="GotTargetSignal" style="edgeLabel;html=1;align=center;verticalAlign=middle;resizable=0;points=[];fontSize=15;" parent="Vu6h0XRG9ciN_BlJq5Kv-39" vertex="1" connectable="0">
          <mxGeometry x="0.0516" y="-3" relative="1" as="geometry">
            <mxPoint x="5" y="-23" as="offset" />
          </mxGeometry>
        </mxCell>
        <mxCell id="Vu6h0XRG9ciN_BlJq5Kv-41" style="edgeStyle=none;rounded=0;orthogonalLoop=1;jettySize=auto;html=1;exitX=0;exitY=0.25;exitDx=0;exitDy=0;fontSize=15;" parent="1" source="Vu6h0XRG9ciN_BlJq5Kv-12" target="Vu6h0XRG9ciN_BlJq5Kv-13" edge="1">
          <mxGeometry relative="1" as="geometry" />
        </mxCell>
        <mxCell id="Vu6h0XRG9ciN_BlJq5Kv-42" value="NoTargetSignal" style="edgeLabel;html=1;align=center;verticalAlign=middle;resizable=0;points=[];fontSize=15;" parent="Vu6h0XRG9ciN_BlJq5Kv-41" vertex="1" connectable="0">
          <mxGeometry x="0.3025" y="2" relative="1" as="geometry">
            <mxPoint as="offset" />
          </mxGeometry>
        </mxCell>
        <mxCell id="Vu6h0XRG9ciN_BlJq5Kv-12" value="SearchTargetSlot&lt;div style=&quot;font-size: 15px;&quot;&gt;(INSEARCH)&lt;/div&gt;" style="whiteSpace=wrap;html=1;fillColor=#ffe6cc;strokeColor=#d79b00;fontSize=15;" parent="1" vertex="1">
          <mxGeometry x="1180" y="720" width="120" height="60" as="geometry" />
        </mxCell>
        <mxCell id="Vu6h0XRG9ciN_BlJq5Kv-43" style="edgeStyle=none;rounded=0;orthogonalLoop=1;jettySize=auto;html=1;exitX=0.25;exitY=1;exitDx=0;exitDy=0;entryX=0.75;entryY=0;entryDx=0;entryDy=0;fontSize=15;" parent="1" source="Vu6h0XRG9ciN_BlJq5Kv-13" target="Vu6h0XRG9ciN_BlJq5Kv-18" edge="1">
          <mxGeometry relative="1" as="geometry" />
        </mxCell>
        <mxCell id="Vu6h0XRG9ciN_BlJq5Kv-44" value="StopCabinSignal" style="edgeLabel;html=1;align=center;verticalAlign=middle;resizable=0;points=[];fontSize=15;" parent="Vu6h0XRG9ciN_BlJq5Kv-43" vertex="1" connectable="0">
          <mxGeometry x="0.2795" relative="1" as="geometry">
            <mxPoint as="offset" />
          </mxGeometry>
        </mxCell>
        <mxCell id="Vu6h0XRG9ciN_BlJq5Kv-13" value="FreeSlot" style="whiteSpace=wrap;html=1;fillColor=#ffe6cc;strokeColor=#d79b00;fontSize=15;" parent="1" vertex="1">
          <mxGeometry x="690" y="680" width="120" height="60" as="geometry" />
        </mxCell>
        <mxCell id="Vu6h0XRG9ciN_BlJq5Kv-45" style="edgeStyle=none;rounded=0;orthogonalLoop=1;jettySize=auto;html=1;exitX=0.25;exitY=1;exitDx=0;exitDy=0;entryX=0.75;entryY=0;entryDx=0;entryDy=0;fontSize=15;" parent="1" source="Vu6h0XRG9ciN_BlJq5Kv-14" target="Vu6h0XRG9ciN_BlJq5Kv-19" edge="1">
          <mxGeometry relative="1" as="geometry" />
        </mxCell>
        <mxCell id="Vu6h0XRG9ciN_BlJq5Kv-46" value="MoveSignal" style="edgeLabel;html=1;align=center;verticalAlign=middle;resizable=0;points=[];fontSize=15;" parent="Vu6h0XRG9ciN_BlJq5Kv-45" vertex="1" connectable="0">
          <mxGeometry x="0.1098" y="2" relative="1" as="geometry">
            <mxPoint as="offset" />
          </mxGeometry>
        </mxCell>
        <mxCell id="Vu6h0XRG9ciN_BlJq5Kv-14" value="GotCommandMove&lt;div style=&quot;font-size: 15px;&quot;&gt;(GOTCOMMAND)&lt;/div&gt;" style="whiteSpace=wrap;html=1;fillColor=#dae8fc;strokeColor=#6c8ebf;fontSize=15;" parent="1" vertex="1">
          <mxGeometry x="1150" y="1080" width="120" height="60" as="geometry" />
        </mxCell>
        <mxCell id="Vu6h0XRG9ciN_BlJq5Kv-51" style="edgeStyle=none;rounded=0;orthogonalLoop=1;jettySize=auto;html=1;exitX=1;exitY=0;exitDx=0;exitDy=0;entryX=0;entryY=0;entryDx=0;entryDy=0;fontSize=15;" parent="1" source="Vu6h0XRG9ciN_BlJq5Kv-15" target="Vu6h0XRG9ciN_BlJq5Kv-20" edge="1">
          <mxGeometry relative="1" as="geometry" />
        </mxCell>
        <mxCell id="Vu6h0XRG9ciN_BlJq5Kv-52" value="OpenDoorsSignal" style="edgeLabel;html=1;align=center;verticalAlign=middle;resizable=0;points=[];fontSize=15;" parent="Vu6h0XRG9ciN_BlJq5Kv-51" vertex="1" connectable="0">
          <mxGeometry x="0.0586" y="-6" relative="1" as="geometry">
            <mxPoint as="offset" />
          </mxGeometry>
        </mxCell>
        <mxCell id="Vu6h0XRG9ciN_BlJq5Kv-15" value="StopToOpenCabinSlot&lt;div style=&quot;font-size: 15px;&quot;&gt;(STANDOPEN)&lt;/div&gt;" style="whiteSpace=wrap;html=1;fillColor=#dae8fc;strokeColor=#6c8ebf;fontSize=15;" parent="1" vertex="1">
          <mxGeometry x="1430" y="980" width="120" height="60" as="geometry" />
        </mxCell>
        <mxCell id="Vu6h0XRG9ciN_BlJq5Kv-57" style="edgeStyle=none;rounded=0;orthogonalLoop=1;jettySize=auto;html=1;exitX=0;exitY=0;exitDx=0;exitDy=0;entryX=1;entryY=0.75;entryDx=0;entryDy=0;fontSize=15;" parent="1" source="Vu6h0XRG9ciN_BlJq5Kv-16" target="Vu6h0XRG9ciN_BlJq5Kv-12" edge="1">
          <mxGeometry relative="1" as="geometry" />
        </mxCell>
        <mxCell id="Vu6h0XRG9ciN_BlJq5Kv-58" value="DoorsClosedSignal" style="edgeLabel;html=1;align=center;verticalAlign=middle;resizable=0;points=[];fontSize=15;" parent="Vu6h0XRG9ciN_BlJq5Kv-57" vertex="1" connectable="0">
          <mxGeometry x="-0.5447" y="2" relative="1" as="geometry">
            <mxPoint x="1" as="offset" />
          </mxGeometry>
        </mxCell>
        <mxCell id="Vu6h0XRG9ciN_BlJq5Kv-16" value="CloseDoorsCabinSlot&lt;div style=&quot;font-size: 15px;&quot;&gt;(STAND)&lt;/div&gt;" style="whiteSpace=wrap;html=1;fillColor=#dae8fc;strokeColor=#6c8ebf;fontSize=15;" parent="1" vertex="1">
          <mxGeometry x="1510" y="760" width="120" height="60" as="geometry" />
        </mxCell>
        <mxCell id="Vu6h0XRG9ciN_BlJq5Kv-18" value="StandCabinSlot&lt;div&gt;(STAND)&lt;/div&gt;" style="whiteSpace=wrap;html=1;fillColor=#dae8fc;strokeColor=#6c8ebf;fontSize=15;" parent="1" vertex="1">
          <mxGeometry x="600" y="890" width="120" height="60" as="geometry" />
        </mxCell>
        <mxCell id="Vu6h0XRG9ciN_BlJq5Kv-49" style="edgeStyle=none;rounded=0;orthogonalLoop=1;jettySize=auto;html=1;exitX=0;exitY=0;exitDx=0;exitDy=0;entryX=0.25;entryY=1;entryDx=0;entryDy=0;fontSize=15;" parent="1" source="Vu6h0XRG9ciN_BlJq5Kv-19" target="Vu6h0XRG9ciN_BlJq5Kv-11" edge="1">
          <mxGeometry relative="1" as="geometry" />
        </mxCell>
        <mxCell id="Vu6h0XRG9ciN_BlJq5Kv-50" value="ReachFloorCabinSignal" style="edgeLabel;html=1;align=center;verticalAlign=middle;resizable=0;points=[];fontSize=15;" parent="Vu6h0XRG9ciN_BlJq5Kv-49" vertex="1" connectable="0">
          <mxGeometry x="-0.3208" y="-3" relative="1" as="geometry">
            <mxPoint as="offset" />
          </mxGeometry>
        </mxCell>
        <mxCell id="Vu6h0XRG9ciN_BlJq5Kv-19" value="MoveCabinSlot&lt;div style=&quot;font-size: 15px;&quot;&gt;(MOVING)&lt;/div&gt;" style="whiteSpace=wrap;html=1;fillColor=#dae8fc;strokeColor=#6c8ebf;fontSize=15;" parent="1" vertex="1">
          <mxGeometry x="1060" y="1260" width="120" height="60" as="geometry" />
        </mxCell>
        <mxCell id="Vu6h0XRG9ciN_BlJq5Kv-20" value="OpeningSlot" style="whiteSpace=wrap;html=1;fillColor=#f8cecc;strokeColor=#b85450;fontSize=15;" parent="1" vertex="1">
          <mxGeometry x="1640" y="1140" width="120" height="60" as="geometry" />
        </mxCell>
        <mxCell id="Vu6h0XRG9ciN_BlJq5Kv-21" style="rounded=0;orthogonalLoop=1;jettySize=auto;html=1;exitX=1;exitY=1;exitDx=0;exitDy=0;entryX=0;entryY=0.5;entryDx=0;entryDy=0;fontSize=15;" parent="1" source="Vu6h0XRG9ciN_BlJq5Kv-20" target="Vu6h0XRG9ciN_BlJq5Kv-25" edge="1">
          <mxGeometry relative="1" as="geometry">
            <mxPoint x="2040" y="1130" as="sourcePoint" />
          </mxGeometry>
        </mxCell>
        <mxCell id="Vu6h0XRG9ciN_BlJq5Kv-22" value="Opening TIMER" style="edgeLabel;html=1;align=center;verticalAlign=middle;resizable=0;points=[];fontSize=15;" parent="Vu6h0XRG9ciN_BlJq5Kv-21" vertex="1" connectable="0">
          <mxGeometry x="0.0039" y="-4" relative="1" as="geometry">
            <mxPoint as="offset" />
          </mxGeometry>
        </mxCell>
        <mxCell id="Vu6h0XRG9ciN_BlJq5Kv-23" style="rounded=0;orthogonalLoop=1;jettySize=auto;html=1;exitX=1;exitY=0.75;exitDx=0;exitDy=0;entryX=0.5;entryY=1;entryDx=0;entryDy=0;fontSize=15;" parent="1" source="Vu6h0XRG9ciN_BlJq5Kv-25" target="Vu6h0XRG9ciN_BlJq5Kv-28" edge="1">
          <mxGeometry relative="1" as="geometry" />
        </mxCell>
        <mxCell id="Vu6h0XRG9ciN_BlJq5Kv-24" value="Opened TIMER" style="edgeLabel;html=1;align=center;verticalAlign=middle;resizable=0;points=[];fontSize=15;" parent="Vu6h0XRG9ciN_BlJq5Kv-23" vertex="1" connectable="0">
          <mxGeometry x="-0.2729" relative="1" as="geometry">
            <mxPoint as="offset" />
          </mxGeometry>
        </mxCell>
        <mxCell id="Vu6h0XRG9ciN_BlJq5Kv-25" value="OpenSlot" style="whiteSpace=wrap;html=1;fontSize=15;fillColor=#f8cecc;strokeColor=#b85450;" parent="1" vertex="1">
          <mxGeometry x="1880" y="1220" width="120" height="60" as="geometry" />
        </mxCell>
        <mxCell id="Vu6h0XRG9ciN_BlJq5Kv-26" style="rounded=0;orthogonalLoop=1;jettySize=auto;html=1;exitX=0;exitY=0;exitDx=0;exitDy=0;entryX=1;entryY=0.25;entryDx=0;entryDy=0;fontSize=15;" parent="1" source="Vu6h0XRG9ciN_BlJq5Kv-28" target="Vu6h0XRG9ciN_BlJq5Kv-29" edge="1">
          <mxGeometry relative="1" as="geometry" />
        </mxCell>
        <mxCell id="Vu6h0XRG9ciN_BlJq5Kv-27" value="ClosingTimer&lt;div style=&quot;font-size: 15px;&quot;&gt;&lt;br style=&quot;font-size: 15px;&quot;&gt;&lt;/div&gt;" style="edgeLabel;html=1;align=center;verticalAlign=middle;resizable=0;points=[];fontSize=15;" parent="Vu6h0XRG9ciN_BlJq5Kv-26" vertex="1" connectable="0">
          <mxGeometry x="0.3577" y="-14" relative="1" as="geometry">
            <mxPoint as="offset" />
          </mxGeometry>
        </mxCell>
        <mxCell id="Vu6h0XRG9ciN_BlJq5Kv-28" value="ClosingSlot" style="whiteSpace=wrap;html=1;fontSize=15;fillColor=#f8cecc;strokeColor=#b85450;" parent="1" vertex="1">
          <mxGeometry x="2080" y="900" width="120" height="60" as="geometry" />
        </mxCell>
        <mxCell id="Vu6h0XRG9ciN_BlJq5Kv-59" style="edgeStyle=none;rounded=0;orthogonalLoop=1;jettySize=auto;html=1;exitX=0;exitY=0;exitDx=0;exitDy=0;entryX=1;entryY=1;entryDx=0;entryDy=0;fontSize=15;" parent="1" source="Vu6h0XRG9ciN_BlJq5Kv-29" target="Vu6h0XRG9ciN_BlJq5Kv-16" edge="1">
          <mxGeometry relative="1" as="geometry" />
        </mxCell>
        <mxCell id="Vu6h0XRG9ciN_BlJq5Kv-60" value="CloseSignal" style="edgeLabel;html=1;align=center;verticalAlign=middle;resizable=0;points=[];fontSize=15;" parent="Vu6h0XRG9ciN_BlJq5Kv-59" vertex="1" connectable="0">
          <mxGeometry x="-0.1245" y="-2" relative="1" as="geometry">
            <mxPoint as="offset" />
          </mxGeometry>
        </mxCell>
        <mxCell id="Vu6h0XRG9ciN_BlJq5Kv-29" value="ClosedSlot" style="whiteSpace=wrap;html=1;fontSize=15;fillColor=#f8cecc;strokeColor=#b85450;" parent="1" vertex="1">
          <mxGeometry x="1820" y="750" width="120" height="60" as="geometry" />
        </mxCell>
        <mxCell id="Vu6h0XRG9ciN_BlJq5Kv-47" style="edgeStyle=orthogonalEdgeStyle;curved=1;rounded=0;orthogonalLoop=1;jettySize=auto;html=1;exitX=0.75;exitY=1;exitDx=0;exitDy=0;entryX=0.25;entryY=1;entryDx=0;entryDy=0;fontSize=15;" parent="1" source="Vu6h0XRG9ciN_BlJq5Kv-19" target="Vu6h0XRG9ciN_BlJq5Kv-19" edge="1">
          <mxGeometry relative="1" as="geometry">
            <Array as="points">
              <mxPoint x="1150" y="1370" />
              <mxPoint x="1090" y="1370" />
            </Array>
          </mxGeometry>
        </mxCell>
        <mxCell id="Vu6h0XRG9ciN_BlJq5Kv-48" value="MoveSignal TIMER" style="edgeLabel;html=1;align=center;verticalAlign=middle;resizable=0;points=[];fontSize=15;" parent="Vu6h0XRG9ciN_BlJq5Kv-47" vertex="1" connectable="0">
          <mxGeometry x="-0.05" y="-1" relative="1" as="geometry">
            <mxPoint as="offset" />
          </mxGeometry>
        </mxCell>
      </root>
    </mxGraphModel>
  </diagram>
  <diagram id="G8TaoMNvN7NyV3GfF3Iv" name="Страница — 2">
    <mxGraphModel dx="1272" dy="876" grid="1" gridSize="10" guides="1" tooltips="1" connect="1" arrows="1" fold="1" page="1" pageScale="1" pageWidth="10000" pageHeight="10000" math="0" shadow="0">
      <root>
        <mxCell id="0" />
        <mxCell id="1" parent="0" />
        <mxCell id="c1wTX6CiVwWqVnVeiDAQ-9" style="edgeStyle=none;rounded=0;orthogonalLoop=1;jettySize=auto;html=1;exitX=0.25;exitY=1;exitDx=0;exitDy=0;entryX=0.25;entryY=0;entryDx=0;entryDy=0;fontSize=15;" parent="1" source="c1wTX6CiVwWqVnVeiDAQ-2" target="c1wTX6CiVwWqVnVeiDAQ-3" edge="1">
          <mxGeometry relative="1" as="geometry" />
        </mxCell>
        <mxCell id="c1wTX6CiVwWqVnVeiDAQ-10" value="Нажать кнопку" style="edgeLabel;html=1;align=center;verticalAlign=middle;resizable=0;points=[];fontSize=15;" parent="c1wTX6CiVwWqVnVeiDAQ-9" vertex="1" connectable="0">
          <mxGeometry x="0.0545" y="-1" relative="1" as="geometry">
            <mxPoint as="offset" />
          </mxGeometry>
        </mxCell>
        <mxCell id="XyYkeDcIa1NYDWsEPkLk-1" style="rounded=0;orthogonalLoop=1;jettySize=auto;html=1;exitX=1;exitY=0.25;exitDx=0;exitDy=0;entryX=0.75;entryY=0;entryDx=0;entryDy=0;fontSize=15;" parent="1" source="c1wTX6CiVwWqVnVeiDAQ-2" target="c1wTX6CiVwWqVnVeiDAQ-5" edge="1">
          <mxGeometry relative="1" as="geometry" />
        </mxCell>
        <mxCell id="XyYkeDcIa1NYDWsEPkLk-2" value="Получить следующуу цель" style="edgeLabel;html=1;align=center;verticalAlign=middle;resizable=0;points=[];fontSize=15;" parent="XyYkeDcIa1NYDWsEPkLk-1" vertex="1" connectable="0">
          <mxGeometry x="-0.1747" y="1" relative="1" as="geometry">
            <mxPoint x="33" y="-6" as="offset" />
          </mxGeometry>
        </mxCell>
        <mxCell id="Uf4v_Zn5YH4Rlz1TJI19-1" style="rounded=0;orthogonalLoop=1;jettySize=auto;html=1;exitX=0;exitY=1;exitDx=0;exitDy=0;entryX=1;entryY=0;entryDx=0;entryDy=0;fontSize=15;" parent="1" source="c1wTX6CiVwWqVnVeiDAQ-2" target="c1wTX6CiVwWqVnVeiDAQ-4" edge="1">
          <mxGeometry relative="1" as="geometry" />
        </mxCell>
        <mxCell id="Uf4v_Zn5YH4Rlz1TJI19-2" value="Не найти целей" style="edgeLabel;html=1;align=center;verticalAlign=middle;resizable=0;points=[];fontSize=15;" parent="Uf4v_Zn5YH4Rlz1TJI19-1" vertex="1" connectable="0">
          <mxGeometry x="0.145" y="-1" relative="1" as="geometry">
            <mxPoint as="offset" />
          </mxGeometry>
        </mxCell>
        <mxCell id="c1wTX6CiVwWqVnVeiDAQ-2" value="В поиске" style="whiteSpace=wrap;html=1;fontSize=15;" parent="1" vertex="1">
          <mxGeometry x="370" y="110" width="120" height="60" as="geometry" />
        </mxCell>
        <mxCell id="c1wTX6CiVwWqVnVeiDAQ-13" style="edgeStyle=none;rounded=0;orthogonalLoop=1;jettySize=auto;html=1;exitX=0.75;exitY=0;exitDx=0;exitDy=0;entryX=0.75;entryY=1;entryDx=0;entryDy=0;fontSize=15;" parent="1" source="c1wTX6CiVwWqVnVeiDAQ-3" target="c1wTX6CiVwWqVnVeiDAQ-2" edge="1">
          <mxGeometry relative="1" as="geometry" />
        </mxCell>
        <mxCell id="c1wTX6CiVwWqVnVeiDAQ-14" value="Искать новую цель" style="edgeLabel;html=1;align=center;verticalAlign=middle;resizable=0;points=[];fontSize=15;" parent="c1wTX6CiVwWqVnVeiDAQ-13" vertex="1" connectable="0">
          <mxGeometry x="0.2545" y="-3" relative="1" as="geometry">
            <mxPoint x="7" as="offset" />
          </mxGeometry>
        </mxCell>
        <mxCell id="c1wTX6CiVwWqVnVeiDAQ-3" value="Нажата кнопка" style="whiteSpace=wrap;html=1;fontSize=15;" parent="1" vertex="1">
          <mxGeometry x="370" y="420" width="120" height="60" as="geometry" />
        </mxCell>
        <mxCell id="c1wTX6CiVwWqVnVeiDAQ-7" style="edgeStyle=none;rounded=0;orthogonalLoop=1;jettySize=auto;html=1;exitX=1;exitY=1;exitDx=0;exitDy=0;entryX=0;entryY=0;entryDx=0;entryDy=0;fontSize=15;" parent="1" source="c1wTX6CiVwWqVnVeiDAQ-4" target="c1wTX6CiVwWqVnVeiDAQ-3" edge="1">
          <mxGeometry relative="1" as="geometry" />
        </mxCell>
        <mxCell id="c1wTX6CiVwWqVnVeiDAQ-8" value="&lt;div style=&quot;font-size: 15px;&quot;&gt;Нажать кнопку&lt;br style=&quot;font-size: 15px;&quot;&gt;&lt;/div&gt;" style="edgeLabel;html=1;align=center;verticalAlign=middle;resizable=0;points=[];fontSize=15;" parent="c1wTX6CiVwWqVnVeiDAQ-7" vertex="1" connectable="0">
          <mxGeometry x="-0.0456" relative="1" as="geometry">
            <mxPoint as="offset" />
          </mxGeometry>
        </mxCell>
        <mxCell id="c1wTX6CiVwWqVnVeiDAQ-4" value="Свободен" style="whiteSpace=wrap;html=1;fontSize=15;" parent="1" vertex="1">
          <mxGeometry x="110" y="250" width="120" height="60" as="geometry" />
        </mxCell>
        <mxCell id="c1wTX6CiVwWqVnVeiDAQ-11" style="edgeStyle=none;rounded=0;orthogonalLoop=1;jettySize=auto;html=1;exitX=0;exitY=1;exitDx=0;exitDy=0;entryX=1;entryY=0;entryDx=0;entryDy=0;fontSize=15;" parent="1" source="c1wTX6CiVwWqVnVeiDAQ-5" target="c1wTX6CiVwWqVnVeiDAQ-3" edge="1">
          <mxGeometry relative="1" as="geometry" />
        </mxCell>
        <mxCell id="c1wTX6CiVwWqVnVeiDAQ-12" value="Нажать кнопку" style="edgeLabel;html=1;align=center;verticalAlign=middle;resizable=0;points=[];fontSize=15;" parent="c1wTX6CiVwWqVnVeiDAQ-11" vertex="1" connectable="0">
          <mxGeometry x="0.2269" y="1" relative="1" as="geometry">
            <mxPoint as="offset" />
          </mxGeometry>
        </mxCell>
        <mxCell id="c1wTX6CiVwWqVnVeiDAQ-15" style="edgeStyle=none;rounded=0;orthogonalLoop=1;jettySize=auto;html=1;exitX=0;exitY=0;exitDx=0;exitDy=0;entryX=1;entryY=1;entryDx=0;entryDy=0;fontSize=15;" parent="1" source="c1wTX6CiVwWqVnVeiDAQ-5" target="c1wTX6CiVwWqVnVeiDAQ-2" edge="1">
          <mxGeometry relative="1" as="geometry" />
        </mxCell>
        <mxCell id="c1wTX6CiVwWqVnVeiDAQ-16" value="Искать новую цель" style="edgeLabel;html=1;align=center;verticalAlign=middle;resizable=0;points=[];fontSize=15;" parent="c1wTX6CiVwWqVnVeiDAQ-15" vertex="1" connectable="0">
          <mxGeometry x="0.1692" relative="1" as="geometry">
            <mxPoint as="offset" />
          </mxGeometry>
        </mxCell>
        <mxCell id="c1wTX6CiVwWqVnVeiDAQ-5" value="Занят" style="whiteSpace=wrap;html=1;fontSize=15;" parent="1" vertex="1">
          <mxGeometry x="640" y="250" width="120" height="60" as="geometry" />
        </mxCell>
        <mxCell id="c1wTX6CiVwWqVnVeiDAQ-17" style="edgeStyle=orthogonalEdgeStyle;curved=1;rounded=0;orthogonalLoop=1;jettySize=auto;html=1;exitX=0.75;exitY=1;exitDx=0;exitDy=0;entryX=1;entryY=0.5;entryDx=0;entryDy=0;fontSize=15;" parent="1" source="c1wTX6CiVwWqVnVeiDAQ-5" target="c1wTX6CiVwWqVnVeiDAQ-5" edge="1">
          <mxGeometry relative="1" as="geometry" />
        </mxCell>
        <mxCell id="c1wTX6CiVwWqVnVeiDAQ-18" value="Достигнуть следующий этаж" style="edgeLabel;html=1;align=center;verticalAlign=middle;resizable=0;points=[];fontSize=15;" parent="c1wTX6CiVwWqVnVeiDAQ-17" vertex="1" connectable="0">
          <mxGeometry x="-0.1429" y="2" relative="1" as="geometry">
            <mxPoint as="offset" />
          </mxGeometry>
        </mxCell>
        <mxCell id="kIhvNFHP44Go6Wj8DTEx-1" value="" style="html=1;verticalAlign=bottom;endArrow=block;curved=0;rounded=0;entryX=0.25;entryY=0;entryDx=0;entryDy=0;fontSize=15;" parent="1" target="c1wTX6CiVwWqVnVeiDAQ-4" edge="1">
          <mxGeometry width="80" relative="1" as="geometry">
            <mxPoint x="80" y="150" as="sourcePoint" />
            <mxPoint x="160" y="150" as="targetPoint" />
          </mxGeometry>
        </mxCell>
        <mxCell id="hSJ_Yfor9J4dPgCTan1M-1" value="&lt;b style=&quot;font-size: 15px;&quot;&gt;Констроллер&lt;/b&gt;" style="text;html=1;align=center;verticalAlign=middle;resizable=0;points=[];autosize=1;strokeColor=none;fillColor=none;fontSize=15;" parent="1" vertex="1">
          <mxGeometry x="170" y="60" width="120" height="30" as="geometry" />
        </mxCell>
        <mxCell id="hSJ_Yfor9J4dPgCTan1M-2" value="&lt;b&gt;Кабина&lt;/b&gt;" style="text;html=1;align=center;verticalAlign=middle;resizable=0;points=[];autosize=1;strokeColor=none;fillColor=none;fontSize=15;" parent="1" vertex="1">
          <mxGeometry x="155" y="580" width="80" height="30" as="geometry" />
        </mxCell>
        <mxCell id="hSJ_Yfor9J4dPgCTan1M-7" style="rounded=0;orthogonalLoop=1;jettySize=auto;html=1;exitX=1;exitY=0;exitDx=0;exitDy=0;entryX=0;entryY=1;entryDx=0;entryDy=0;fontSize=15;" parent="1" source="hSJ_Yfor9J4dPgCTan1M-3" target="hSJ_Yfor9J4dPgCTan1M-6" edge="1">
          <mxGeometry relative="1" as="geometry" />
        </mxCell>
        <mxCell id="hSJ_Yfor9J4dPgCTan1M-8" value="Получить команду" style="edgeLabel;html=1;align=center;verticalAlign=middle;resizable=0;points=[];fontSize=15;" parent="hSJ_Yfor9J4dPgCTan1M-7" vertex="1" connectable="0">
          <mxGeometry x="0.0102" y="3" relative="1" as="geometry">
            <mxPoint as="offset" />
          </mxGeometry>
        </mxCell>
        <mxCell id="qD2nk1059fUD0WZjwg-J-7" style="edgeStyle=none;rounded=0;orthogonalLoop=1;jettySize=auto;html=1;exitX=0.5;exitY=1;exitDx=0;exitDy=0;entryX=0;entryY=1;entryDx=0;entryDy=0;fontSize=15;" edge="1" parent="1" source="hSJ_Yfor9J4dPgCTan1M-3" target="hSJ_Yfor9J4dPgCTan1M-4">
          <mxGeometry relative="1" as="geometry" />
        </mxCell>
        <mxCell id="qD2nk1059fUD0WZjwg-J-8" value="Остановиться чтобы открыть кабину" style="edgeLabel;html=1;align=center;verticalAlign=middle;resizable=0;points=[];fontSize=15;" vertex="1" connectable="0" parent="qD2nk1059fUD0WZjwg-J-7">
          <mxGeometry x="-0.0808" y="-1" relative="1" as="geometry">
            <mxPoint x="10" y="5" as="offset" />
          </mxGeometry>
        </mxCell>
        <mxCell id="hSJ_Yfor9J4dPgCTan1M-3" value="Стоит" style="whiteSpace=wrap;html=1;fontSize=15;" parent="1" vertex="1">
          <mxGeometry x="90" y="770" width="120" height="60" as="geometry" />
        </mxCell>
        <mxCell id="qD2nk1059fUD0WZjwg-J-9" style="edgeStyle=none;rounded=0;orthogonalLoop=1;jettySize=auto;html=1;exitX=0;exitY=0;exitDx=0;exitDy=0;entryX=1;entryY=1;entryDx=0;entryDy=0;fontSize=15;" edge="1" parent="1" source="hSJ_Yfor9J4dPgCTan1M-4" target="hSJ_Yfor9J4dPgCTan1M-3">
          <mxGeometry relative="1" as="geometry" />
        </mxCell>
        <mxCell id="qD2nk1059fUD0WZjwg-J-10" value="Закрыть двери кабины" style="edgeLabel;html=1;align=center;verticalAlign=middle;resizable=0;points=[];fontSize=15;" vertex="1" connectable="0" parent="qD2nk1059fUD0WZjwg-J-9">
          <mxGeometry x="0.3094" y="-2" relative="1" as="geometry">
            <mxPoint as="offset" />
          </mxGeometry>
        </mxCell>
        <mxCell id="hSJ_Yfor9J4dPgCTan1M-4" value="Стоит с открытыми дверями" style="whiteSpace=wrap;html=1;fontSize=15;" parent="1" vertex="1">
          <mxGeometry x="390" y="930" width="120" height="60" as="geometry" />
        </mxCell>
        <mxCell id="qD2nk1059fUD0WZjwg-J-4" style="rounded=0;orthogonalLoop=1;jettySize=auto;html=1;exitX=0;exitY=1;exitDx=0;exitDy=0;entryX=1;entryY=0;entryDx=0;entryDy=0;fontSize=15;" edge="1" parent="1" source="hSJ_Yfor9J4dPgCTan1M-5" target="hSJ_Yfor9J4dPgCTan1M-4">
          <mxGeometry relative="1" as="geometry" />
        </mxCell>
        <mxCell id="qD2nk1059fUD0WZjwg-J-5" value="Остановиться чтобы открыть кабину" style="edgeLabel;html=1;align=center;verticalAlign=middle;resizable=0;points=[];fontSize=15;" vertex="1" connectable="0" parent="qD2nk1059fUD0WZjwg-J-4">
          <mxGeometry x="0.096" y="-3" relative="1" as="geometry">
            <mxPoint as="offset" />
          </mxGeometry>
        </mxCell>
        <mxCell id="hSJ_Yfor9J4dPgCTan1M-5" value="Двигается" style="whiteSpace=wrap;html=1;fontSize=15;" parent="1" vertex="1">
          <mxGeometry x="710" y="770" width="120" height="60" as="geometry" />
        </mxCell>
        <mxCell id="hSJ_Yfor9J4dPgCTan1M-9" style="edgeStyle=none;rounded=0;orthogonalLoop=1;jettySize=auto;html=1;exitX=1;exitY=1;exitDx=0;exitDy=0;entryX=0;entryY=0;entryDx=0;entryDy=0;fontSize=15;" parent="1" source="hSJ_Yfor9J4dPgCTan1M-6" target="hSJ_Yfor9J4dPgCTan1M-5" edge="1">
          <mxGeometry relative="1" as="geometry" />
        </mxCell>
        <mxCell id="hSJ_Yfor9J4dPgCTan1M-10" value="Переместить кабину" style="edgeLabel;html=1;align=center;verticalAlign=middle;resizable=0;points=[];fontSize=15;" parent="hSJ_Yfor9J4dPgCTan1M-9" vertex="1" connectable="0">
          <mxGeometry x="-0.0661" y="-3" relative="1" as="geometry">
            <mxPoint y="1" as="offset" />
          </mxGeometry>
        </mxCell>
        <mxCell id="hSJ_Yfor9J4dPgCTan1M-6" value="Получена команда" style="whiteSpace=wrap;html=1;fontSize=15;" parent="1" vertex="1">
          <mxGeometry x="390" y="630" width="120" height="60" as="geometry" />
        </mxCell>
        <mxCell id="qD2nk1059fUD0WZjwg-J-1" style="edgeStyle=orthogonalEdgeStyle;rounded=0;orthogonalLoop=1;jettySize=auto;html=1;exitX=1;exitY=0;exitDx=0;exitDy=0;entryX=1;entryY=1;entryDx=0;entryDy=0;curved=1;fontSize=15;" edge="1" parent="1" source="hSJ_Yfor9J4dPgCTan1M-5" target="hSJ_Yfor9J4dPgCTan1M-5">
          <mxGeometry relative="1" as="geometry">
            <Array as="points">
              <mxPoint x="830" y="750" />
              <mxPoint x="900" y="750" />
              <mxPoint x="900" y="850" />
              <mxPoint x="830" y="850" />
            </Array>
          </mxGeometry>
        </mxCell>
        <mxCell id="qD2nk1059fUD0WZjwg-J-3" value="Переместить кабину" style="edgeLabel;html=1;align=center;verticalAlign=middle;resizable=0;points=[];fontSize=15;" vertex="1" connectable="0" parent="qD2nk1059fUD0WZjwg-J-1">
          <mxGeometry x="-0.0143" y="3" relative="1" as="geometry">
            <mxPoint as="offset" />
          </mxGeometry>
        </mxCell>
        <mxCell id="qD2nk1059fUD0WZjwg-J-11" value="" style="html=1;verticalAlign=bottom;endArrow=block;curved=0;rounded=0;entryX=0.25;entryY=0;entryDx=0;entryDy=0;fontSize=15;" edge="1" parent="1" target="hSJ_Yfor9J4dPgCTan1M-3">
          <mxGeometry width="80" relative="1" as="geometry">
            <mxPoint x="60" y="670" as="sourcePoint" />
            <mxPoint x="100" y="730" as="targetPoint" />
          </mxGeometry>
        </mxCell>
        <mxCell id="EATrCKLtXP7xMisy1pwF-1" style="edgeStyle=orthogonalEdgeStyle;rounded=0;orthogonalLoop=1;jettySize=auto;html=1;exitX=0.5;exitY=1;exitDx=0;exitDy=0;entryX=0.5;entryY=1;entryDx=0;entryDy=0;curved=1;fontSize=15;" edge="1" parent="1" source="EATrCKLtXP7xMisy1pwF-3" target="EATrCKLtXP7xMisy1pwF-6">
          <mxGeometry relative="1" as="geometry">
            <Array as="points">
              <mxPoint x="1305" y="480" />
              <mxPoint x="1545" y="480" />
            </Array>
          </mxGeometry>
        </mxCell>
        <mxCell id="EATrCKLtXP7xMisy1pwF-9" value="Обработать нажатие кнопки" style="edgeLabel;html=1;align=center;verticalAlign=middle;resizable=0;points=[];fontSize=15;" vertex="1" connectable="0" parent="EATrCKLtXP7xMisy1pwF-1">
          <mxGeometry x="-0.0056" y="-1" relative="1" as="geometry">
            <mxPoint as="offset" />
          </mxGeometry>
        </mxCell>
        <mxCell id="EATrCKLtXP7xMisy1pwF-3" value="Нажатая" style="rounded=0;whiteSpace=wrap;html=1;fontSize=15;" vertex="1" parent="1">
          <mxGeometry x="1245" y="360" width="120" height="60" as="geometry" />
        </mxCell>
        <mxCell id="EATrCKLtXP7xMisy1pwF-4" style="edgeStyle=orthogonalEdgeStyle;rounded=0;orthogonalLoop=1;jettySize=auto;html=1;exitX=0.5;exitY=0;exitDx=0;exitDy=0;entryX=0.5;entryY=0;entryDx=0;entryDy=0;curved=1;fontSize=15;" edge="1" parent="1">
          <mxGeometry relative="1" as="geometry">
            <Array as="points">
              <mxPoint x="1544" y="300" />
              <mxPoint x="1304" y="300" />
            </Array>
            <mxPoint x="1544" y="360" as="sourcePoint" />
            <mxPoint x="1304" y="360" as="targetPoint" />
          </mxGeometry>
        </mxCell>
        <mxCell id="EATrCKLtXP7xMisy1pwF-8" value="Нажать кнопку" style="edgeLabel;html=1;align=center;verticalAlign=middle;resizable=0;points=[];fontSize=15;" vertex="1" connectable="0" parent="EATrCKLtXP7xMisy1pwF-4">
          <mxGeometry x="0.0222" relative="1" as="geometry">
            <mxPoint as="offset" />
          </mxGeometry>
        </mxCell>
        <mxCell id="EATrCKLtXP7xMisy1pwF-6" value="Не нажатая" style="rounded=0;whiteSpace=wrap;html=1;fontSize=15;" vertex="1" parent="1">
          <mxGeometry x="1485" y="360" width="120" height="60" as="geometry" />
        </mxCell>
        <mxCell id="EATrCKLtXP7xMisy1pwF-7" value="&lt;font style=&quot;font-size: 15px;&quot;&gt;&lt;b&gt;Кнопка&lt;/b&gt;&lt;/font&gt;" style="text;html=1;align=center;verticalAlign=middle;resizable=0;points=[];autosize=1;strokeColor=none;fillColor=none;fontSize=15;" vertex="1" parent="1">
          <mxGeometry x="1230" y="238" width="80" height="30" as="geometry" />
        </mxCell>
        <mxCell id="EATrCKLtXP7xMisy1pwF-11" style="edgeStyle=orthogonalEdgeStyle;rounded=0;orthogonalLoop=1;jettySize=auto;html=1;exitX=0.5;exitY=1;exitDx=0;exitDy=0;entryX=0.5;entryY=0;entryDx=0;entryDy=0;fontSize=15;" edge="1" parent="1" source="EATrCKLtXP7xMisy1pwF-14" target="EATrCKLtXP7xMisy1pwF-17">
          <mxGeometry relative="1" as="geometry" />
        </mxCell>
        <mxCell id="EATrCKLtXP7xMisy1pwF-12" value="Открыть двери" style="edgeLabel;html=1;align=center;verticalAlign=middle;resizable=0;points=[];fontSize=15;" vertex="1" connectable="0" parent="EATrCKLtXP7xMisy1pwF-11">
          <mxGeometry x="-0.1103" y="-3" relative="1" as="geometry">
            <mxPoint x="-17" y="12" as="offset" />
          </mxGeometry>
        </mxCell>
        <mxCell id="EATrCKLtXP7xMisy1pwF-13" style="edgeStyle=orthogonalEdgeStyle;rounded=0;orthogonalLoop=1;jettySize=auto;html=1;exitX=0;exitY=0.5;exitDx=0;exitDy=0;startArrow=classic;startFill=1;endArrow=none;endFill=0;fontSize=15;" edge="1" parent="1" source="EATrCKLtXP7xMisy1pwF-14">
          <mxGeometry relative="1" as="geometry">
            <mxPoint x="1090" y="720.3333333333335" as="targetPoint" />
          </mxGeometry>
        </mxCell>
        <mxCell id="EATrCKLtXP7xMisy1pwF-14" value="Закрыты" style="rounded=0;whiteSpace=wrap;html=1;fontSize=15;" vertex="1" parent="1">
          <mxGeometry x="1230" y="690" width="120" height="60" as="geometry" />
        </mxCell>
        <mxCell id="EATrCKLtXP7xMisy1pwF-15" style="edgeStyle=orthogonalEdgeStyle;rounded=0;orthogonalLoop=1;jettySize=auto;html=1;exitX=1;exitY=0.5;exitDx=0;exitDy=0;entryX=0;entryY=0.5;entryDx=0;entryDy=0;fontSize=15;" edge="1" parent="1" source="EATrCKLtXP7xMisy1pwF-17" target="EATrCKLtXP7xMisy1pwF-20">
          <mxGeometry relative="1" as="geometry" />
        </mxCell>
        <mxCell id="EATrCKLtXP7xMisy1pwF-16" value="Таймер открытия" style="edgeLabel;html=1;align=center;verticalAlign=middle;resizable=0;points=[];fontSize=15;" vertex="1" connectable="0" parent="EATrCKLtXP7xMisy1pwF-15">
          <mxGeometry x="-0.0588" y="-3" relative="1" as="geometry">
            <mxPoint y="-3" as="offset" />
          </mxGeometry>
        </mxCell>
        <mxCell id="EATrCKLtXP7xMisy1pwF-17" value="Открываются" style="rounded=0;whiteSpace=wrap;html=1;fontSize=15;" vertex="1" parent="1">
          <mxGeometry x="1230" y="880" width="120" height="60" as="geometry" />
        </mxCell>
        <mxCell id="EATrCKLtXP7xMisy1pwF-18" style="edgeStyle=orthogonalEdgeStyle;rounded=0;orthogonalLoop=1;jettySize=auto;html=1;exitX=0.5;exitY=0;exitDx=0;exitDy=0;entryX=0.5;entryY=1;entryDx=0;entryDy=0;fontSize=15;" edge="1" parent="1" source="EATrCKLtXP7xMisy1pwF-20" target="EATrCKLtXP7xMisy1pwF-25">
          <mxGeometry relative="1" as="geometry" />
        </mxCell>
        <mxCell id="EATrCKLtXP7xMisy1pwF-19" value="Таймер открытых" style="edgeLabel;html=1;align=center;verticalAlign=middle;resizable=0;points=[];fontSize=15;" vertex="1" connectable="0" parent="EATrCKLtXP7xMisy1pwF-18">
          <mxGeometry x="-0.1974" y="-2" relative="1" as="geometry">
            <mxPoint x="-2" y="-8" as="offset" />
          </mxGeometry>
        </mxCell>
        <mxCell id="EATrCKLtXP7xMisy1pwF-20" value="Открыты" style="rounded=0;whiteSpace=wrap;html=1;fontSize=15;" vertex="1" parent="1">
          <mxGeometry x="1520" y="880" width="120" height="60" as="geometry" />
        </mxCell>
        <mxCell id="EATrCKLtXP7xMisy1pwF-21" style="edgeStyle=orthogonalEdgeStyle;rounded=0;orthogonalLoop=1;jettySize=auto;html=1;exitX=0;exitY=0.5;exitDx=0;exitDy=0;entryX=1;entryY=0.5;entryDx=0;entryDy=0;fontSize=15;" edge="1" parent="1" source="EATrCKLtXP7xMisy1pwF-25" target="EATrCKLtXP7xMisy1pwF-14">
          <mxGeometry relative="1" as="geometry" />
        </mxCell>
        <mxCell id="EATrCKLtXP7xMisy1pwF-22" value="Таймер закрытия" style="edgeLabel;html=1;align=center;verticalAlign=middle;resizable=0;points=[];fontSize=15;" vertex="1" connectable="0" parent="EATrCKLtXP7xMisy1pwF-21">
          <mxGeometry x="-0.098" y="1" relative="1" as="geometry">
            <mxPoint as="offset" />
          </mxGeometry>
        </mxCell>
        <mxCell id="EATrCKLtXP7xMisy1pwF-23" style="rounded=0;orthogonalLoop=1;jettySize=auto;html=1;exitX=0;exitY=1;exitDx=0;exitDy=0;entryX=1;entryY=0;entryDx=0;entryDy=0;fontSize=15;" edge="1" parent="1" source="EATrCKLtXP7xMisy1pwF-25" target="EATrCKLtXP7xMisy1pwF-17">
          <mxGeometry relative="1" as="geometry" />
        </mxCell>
        <mxCell id="EATrCKLtXP7xMisy1pwF-24" value="Открытьдвери" style="edgeLabel;html=1;align=center;verticalAlign=middle;resizable=0;points=[];fontSize=15;" vertex="1" connectable="0" parent="EATrCKLtXP7xMisy1pwF-23">
          <mxGeometry x="0.0556" y="-1" relative="1" as="geometry">
            <mxPoint as="offset" />
          </mxGeometry>
        </mxCell>
        <mxCell id="EATrCKLtXP7xMisy1pwF-25" value="Закрываются" style="rounded=0;whiteSpace=wrap;html=1;fontSize=15;" vertex="1" parent="1">
          <mxGeometry x="1520" y="690" width="120" height="60" as="geometry" />
        </mxCell>
        <mxCell id="EATrCKLtXP7xMisy1pwF-26" value="&lt;b style=&quot;font-size: 15px;&quot;&gt;Двери&lt;/b&gt;" style="text;html=1;align=center;verticalAlign=middle;resizable=0;points=[];autosize=1;strokeColor=none;fillColor=none;fontSize=15;" vertex="1" parent="1">
          <mxGeometry x="1140" y="620" width="70" height="30" as="geometry" />
        </mxCell>
        <mxCell id="ePH_cTspL5YNq9p9l4FB-1" value="" style="html=1;verticalAlign=bottom;endArrow=block;curved=0;rounded=0;entryX=0.75;entryY=0;entryDx=0;entryDy=0;" edge="1" parent="1" target="EATrCKLtXP7xMisy1pwF-6">
          <mxGeometry width="80" relative="1" as="geometry">
            <mxPoint x="1610" y="300" as="sourcePoint" />
            <mxPoint x="1690" y="300" as="targetPoint" />
          </mxGeometry>
        </mxCell>
      </root>
    </mxGraphModel>
  </diagram>
</mxfile>
